<?xml version="1.0" encoding="utf-8"?>
<!-- Generator: Adobe Illustrator 25.1.0, SVG Export Plug-In . SVG Version: 6.00 Build 0)  -->
<svg version="1.1" id="Layer_1" xmlns="http://www.w3.org/2000/svg" xmlns:xlink="http://www.w3.org/1999/xlink" x="0px" y="0px"
	 viewBox="0 0 841.89 595.28" style="enable-background:new 0 0 841.89 595.28;" xml:space="preserve">
<style type="text/css">
	.st0{fill:#FFFFFF;}
	.st1{fill:#143A84;}
	.st2{fill-rule:evenodd;clip-rule:evenodd;fill:#143A84;}
	.st3{fill:#FFCC00;}
</style>
<g>
	<g>
		<path class="st0" d="M697.05,370.55H105.41c-2.9,0-5.55-1.66-6.9-4.33c-1.44-2.85-1.17-6.2,0.71-8.75l0.02-0.03l59.31-78.71
			c2.84-3.86,7.15-6.08,11.81-6.08h561.22c3.01,0,5.74,1.46,7.5,4c1.87,2.69,2.29,6.15,1.14,9.24l-0.04,0.09l-31.48,76.24
			C706.8,367.29,702.23,370.55,697.05,370.55z M103.86,360.9c-0.68,0.94-0.55,2.02-0.2,2.71c0.18,0.35,0.7,1.17,1.75,1.17h591.64
			c2.76,0,5.22-1.81,6.27-4.62l0.04-0.09l31.48-76.23c0.48-1.32,0.29-2.77-0.49-3.9c-0.39-0.57-1.28-1.52-2.76-1.52H170.36
			c-2.81,0-5.42,1.37-7.18,3.76L103.86,360.9z"/>
	</g>
	<path class="st0" d="M300.02,279.97c0,0-4.38-6.79-3.15-17.43c0.62-5.32,2.86-10.88,4.26-13.97c0.7-1.53,2.02-2.68,3.62-3.19
		l2.26-0.72c0,0,4.83-6.76,17.87-10.14c13.04-3.38,21.49-0.48,21.49-0.48s69.49-39.18,71.48-40.09c2.23-1.01,4.04-1.16,4.04-1.16
		v-3.15c0,0-0.14-4.39,4.8-4.09c4.56,0.28,4.69,5.49,4.69,5.49v2.42l29.73,3.71v-3.53c0,0,0-3.96,4.63-3.59
		c5.08,0.4,4.77,5.01,4.77,5.01v4.11c0,0,3.55,0.62,5.38,4.74c2.01,4.52,8.14,20.73,8.14,20.73l0.3,0.85c0,0,29.63-8.61,33.01-8.85
		c3.38-0.24,15.94,0.97,17.63,2.66c1.69,1.69-0.24,5.07-0.24,5.07l1.69,7c0,0,7.97-1.21,17.39-1.45c5.17-0.13,9.61,0.39,12.56,0.89
		c2.23,0.38,3.86,2.32,3.86,4.58v11.22c0,0,9.39,2.47,8.94,16.72c-0.31,9.7-3.62,14.64-13.53,18.02
		C555.75,284.76,300.02,279.97,300.02,279.97z"/>
	<path class="st0" d="M497.46,239.8c1.1,0.47,2.2,1.04,3.19,1.67c1.26,0.74,2.4,1.67,3.35,2.76l0.08,0.1l0.04,0.04
		c0.04,0.04,0.08,0.1,0.12,0.16c1.48,1.82,2.22,3.94,2.22,6.25v3.74c1.1,0.96,1.82,2.27,1.82,3.74v4.68c0,3.02-2.18,5.55-5.07,6.15
		c-0.64,4.31-2.81,8.98-7.94,8.98c-36.92,0-67.84-1.29-107.06-1.29c-0.7,0-1.36-0.14-1.98-0.39c-3.93-1.61-4.99-7.39-4.99-11.05
		c0-1.2,0.1-2.41,0.32-3.59h-3.37v-2.76l-3.55,0.02v-36.74l44.15-24.93c0.82-0.45,1.64-1,2.57-1.29c0.66-0.22,1.32-0.29,1.98-0.27
		v-5c0-1.67,1.38-3.02,3.09-3.02c1.7,0,3.09,1.35,3.09,3.02v5.25c0.72-0.02,1.46,0.02,2.18,0.06l0.12,0.02l30.94,3.74v-4.53
		c0-1.65,1.38-3,3.07-3c1.7,0,3.09,1.35,3.09,3v6.21c0.48,0.25,0.94,0.53,1.38,0.84c3.27,2.23,5.25,5.55,6.25,9.25
		c0.8,0.47,1.4,1.16,1.7,2.06v0.04l1.88,6.6l-1.22,0.35l1.02,6.15c2.02,0.27,4.09,0.65,6.09,1.04c2.26,0.43,4.59,0.92,6.81,1.55
		c1.1,0.29,2.32,0.63,3.13,1.47c0.88,0.92,1.06,2.21,1.16,3.43C497.28,236.13,497.38,237.95,497.46,239.8z"/>
	<path class="st1" d="M505.05,255.2v-4.43c0-2.23-0.8-4.02-1.92-5.41c-0.02-0.04-0.06-0.1-0.1-0.14l-0.02-0.04l-0.08-0.08
		c-0.9-1.04-1.98-1.86-3.03-2.49c-1.32-0.82-2.71-1.49-3.81-1.88c-0.08-1.98-0.22-4.41-0.36-6.33c-0.22-2.72-0.8-3-3.27-3.68
		c-3.53-0.98-10.26-2.25-13.75-2.67l-1.38-8.37l1.08-0.31l-1.5-5.27c-0.26-0.76-0.84-1.25-1.56-1.57c-0.86-3.59-2.67-6.88-5.85-9.05
		c-0.58-0.39-1.26-0.78-1.98-1.12v-7.05c0-0.9-0.74-1.63-1.68-1.63c-0.92,0-1.66,0.73-1.66,1.63v6.09l-32.47-3.96h-0.08
		c-1.34-0.08-2.4-0.14-3.51,0.06v-6.74c0-0.9-0.76-1.65-1.68-1.65c-0.92,0-1.68,0.74-1.68,1.65v5.21v0.76v0.55
		c-2.67-0.45-3.25,0.1-5.25,1.23l-43.45,24.54l42.81-21.53l-0.14,45.97c0,0-4.17,1.53-6.21,8.18c-1.4,4.56-0.85,10.23-0.85,10.23
		h-2.78c0,0-0.03,3.54-0.19,4.39h3.83c0.84,2.92,2.47,6.08,4.91,6.08h9.1c2.45,0,4.09-3.16,4.93-6.08h3.69
		c0.92,3.33,2.93,6.41,6.25,6.41h6.47c4.31,0,6.25-4.21,6.67-8.84h29.76c0.48,4.08,2.59,8.84,6.71,8.84h4.27
		c4.31,0,6.25-4.21,6.67-8.84c2.73-0.06,4.93-2.23,4.93-4.92v-4.68C506.88,256.79,505.92,255.75,505.05,255.2z"/>
	<g>
		<path class="st0" d="M424.75,199.23c-1.22-0.25-1.94-0.27-3.07,0.22v45.7l1.52-0.71v-34.65c0-0.82,0.7-1.51,1.54-1.51V199.23z"/>
		<path class="st0" d="M497.04,252.87h4.87c0.62,0,1.16-0.51,1.16-1.14v-3.86c0-0.63-0.52-1.14-1.16-1.14h-4.87
			c-0.64,0-1.16,0.51-1.16,1.14v3.86C495.87,252.36,496.4,252.87,497.04,252.87z"/>
		<polygon class="st0" points="491.41,239.78 467.19,239.42 467.19,239.44 467.19,240.6 491.47,240.95 491.45,240.36 		"/>
		<polygon class="st0" points="491.79,253.79 491.79,253.16 467.17,252.81 467.17,253.42 467.17,253.98 491.79,254.34 		"/>
		<path class="st0" d="M467.21,237.19c0,0.39-0.02,0.78-0.02,1.18l24.17,0.35c-0.02-0.39-0.04-0.78-0.06-1.18L467.21,237.19z"/>
		<path class="st0" d="M461.04,246.73h-4.85c-0.64,0-1.16,0.51-1.16,1.14v3.86c0,0.63,0.52,1.14,1.16,1.14h4.85
			c0.64,0,1.18-0.51,1.18-1.14v-3.86C462.22,247.24,461.68,246.73,461.04,246.73z"/>
		<path class="st0" d="M503.81,256.24l-55.07-0.41c0.1,0.37,0.18,0.76,0.24,1.14l56.26,0.39c0.1,0,0.22,0.02,0.32,0.04
			C505.39,256.69,504.77,256.24,503.81,256.24z"/>
		<path class="st0" d="M491.16,235.31l-24.01-0.35c0.02,0.06,0.02,0.14,0.02,0.2c0.02,0.12,0.02,0.22,0.02,0.33
			c0,0.12,0,0.24,0,0.37v0.27l24.07,0.35c-0.02-0.2-0.04-0.39-0.04-0.59C491.2,235.7,491.18,235.5,491.16,235.31z"/>
		<path class="st0" d="M452.7,248.24c0-3.76-1.16-7.96-7.64-7.88c11.2-2.68,18.82,3.27,20.18,8.41c0.04-5.59,0.08-11.43,0.06-12.37
			c-0.04-1.43-0.6-2.49-1.32-2.78c-0.72-0.27-11.28-2.49-11.28-2.49l12.41,2.02c0.22-0.49,0.42-1.27,1.74-1.39
			c4.47-0.41,18.08,0.16,22.47,0.45c2.53,0.18,3.13,0.96,3.35,3.37c0.2,2.1,0.58,11.76,0.66,18.48h1.42v-5.62v-0.57
			c0-0.04,0-0.1,0.02-0.14c0.02-4.43-0.16-8.78-0.5-13.21c-0.12-1.63-0.36-1.92-1.38-2.21c-4.51-1.33-9.76-2.29-14.41-2.84l-29-1.65
			h-6.15c-1.72,0-2.36,0.73-3.67,1.82l-0.22-11.68c-0.06-1.2-0.88-1.25-1.96-0.84c-0.64,0.24-6.47,2.47-6.47,2.47
			c1.06-0.8,4.71-2.19,5.85-2.74c1.08-0.51,1.78-0.78,3.07-0.74c5.27,0.2,29.62,1.31,36.08,1.63l-0.72-2.63
			c-0.24-0.94-0.4-1.35-1.18-1.59c-7.94-0.49-33.11-2.04-34.33-1.96c-1.46,0.08-7.82,3.33-7.82,3.33s1.24-2.21,6.15-4.62
			c0-0.1-0.02-0.2-0.02-0.31c-0.64-8.23-8.04-9.74-8.04-9.74c6.57,0.2,8.3,4.84,9.28,6.53c0.98,1.7,2.55,2.29,4.79,2.74
			c2.02,0.39,24.39,1.69,28.84,1.94c-2.55-7.45-8.88-8.05-8.88-8.05l-32.55-3.96c-1.32-0.06-2.3-0.16-3.41,0.1v10.29v47.25h6.17
			c0.8-5.86,2.89-10.62,7.17-10.62c3.01,0,5.57,3.16,6.67,7.64h4.57V248.24z M444.83,202.37c0.06-0.16,0.22-0.24,0.4-0.22
			l13.13,1.55c1.26,0.14,2.49,0.41,3.33,1.39l0.78,0.88c0.12,0.16,0.2,0.31,0.14,0.47c-0.06,0.16-0.22,0.25-0.4,0.24l-13.41-1.22
			c-1.48-0.14-2.71-0.88-3.55-2.14l-0.32-0.51C444.83,202.66,444.77,202.52,444.83,202.37z M431.38,231.47v-10.43l4.59-2.14
			c0.96-0.45,1.8,0.14,1.8,1.12l0.08,8.43C437.85,228.65,431.38,231.47,431.38,231.47z"/>
		<polygon class="st0" points="467.17,243.87 467.17,245.05 491.61,245.42 491.61,244.83 491.59,244.22 		"/>
		<polygon class="st0" points="467.17,246.11 467.17,246.67 467.17,247.03 467.17,247.28 491.67,247.65 491.67,247.2 491.65,246.71 
			491.65,246.46 		"/>
		<polygon class="st0" points="467.17,251.75 491.77,252.1 491.77,251.53 491.75,250.93 467.17,250.57 		"/>
		<polygon class="st0" points="491.51,242.01 467.19,241.64 467.19,242.81 491.55,243.19 491.53,242.6 		"/>
		<polygon class="st0" points="467.17,248.34 467.17,248.91 467.17,249.52 491.73,249.87 491.71,249.28 491.71,248.69 		"/>
		<polygon class="st0" points="466.66,234.75 466.66,254.37 492.3,254.74 491.65,234.91 		"/>
	</g>
	<path class="st2" d="M495.27,278.16"/>
	<ellipse class="st0" cx="440.9" cy="262.32" rx="4.57" ry="10.11"/>
	<ellipse class="st0" cx="419.25" cy="262.32" rx="4.57" ry="10.11"/>
	<g>
		<path class="st1" d="M385.14,246.66c0,0-6.67-6.12-24.84-8.13c-18.17-2.01-32.05-0.09-32.05-0.09s5.75,1,9.13,3.2
			c3.38,2.19,5.39,5.2,5.39,5.2s27.21,0.46,46.21,3.47s18.99,8.67,18.99,8.67l-10.23-0.84c0,0-1.74,1.39-2.74,2.76
			c-1,1.37-1.28,2.1-1.28,2.1s-15.89-0.55-15.89-0.82c0-0.27-1-1.83-2.28-3.2s-3.84-2.74-3.84-2.74l-18.99-1.37
			c0,0,1.1,2.28,1.55,4.11c0.46,1.83,0.27,3.47,0.27,3.47l20.84,1.13l-19.29-2.14c0,0-0.09-1.19-0.46-2.28
			c-0.37-1.1-1.1-2.83-1.1-2.83s15.8,0.64,16.89,1s2.74,1.55,3.56,3.2s1.19,3.01,1.19,3.01l19.08,0.64c0,0,0.47-1.96,1.1-2.92
			c1.11-1.71,2.19-2.19,2.19-2.19l11.96,1.19c0,0,0.09-8.58-26.12-11.96c-26.21-3.38-39.72-3.1-39.72-3.1s-1.92-2.1-3.84-3.38
			c-1.92-1.28-5.39-2.74-5.39-2.74s18.72-0.18,31.05,1.46C378.84,242.19,385.14,246.66,385.14,246.66z"/>
		<path class="st1" d="M398.26,264.37l12.14-0.09c0,0,0.09,5.55-0.35,8.15c-0.43,2.6-1.13,3.99-1.13,3.99H303.56
			c0,0-4.08-7.89-3.38-14.05c0.69-6.16,4.16-13.01,4.16-13.01l4.86-0.78c0,0,3.9-6.24,12.92-8.06s15.09,7.63,15.09,7.63l-17.69,1.82
			c0,0,1.91,3.12,2.51,9.89c0.61,6.76-0.35,10.06-0.35,10.06s-0.35-6.59-1.47-11.79c-1.13-5.2-4.16-9.63-4.16-9.63l16.22-1.73
			c0,0-3.73-5.9-11.53-4.51c-7.8,1.39-11.01,7.54-11.01,7.54l-3.73,0.87c0,0-4.6,6.76-4.34,12.83c0.26,6.07,2.34,11.01,2.34,11.01
			l1.56-0.26c0,0-1.47-12.75,2.08-19.6s7.72-2.25,9.45,5.46s0.26,13.7,0.26,13.7l16.78,0.52c0,0-3.08-10.4,0.13-19.25
			c3.21-8.84,9.89-8.5,13.01,0.26c3.12,8.76,2.25,18.65,2.25,18.65l57.76,0.16c0,0,0.78-1.99,0.95-4.25c0.17-2.25,0-4.16,0-4.16
			L398.26,264.37z"/>
		
			<ellipse transform="matrix(0.9992 -0.0389 0.0389 0.9992 -9.9621 13.4273)" class="st0" cx="340.42" cy="262.98" rx="5.25" ry="11.94"/>
		
			<ellipse transform="matrix(0.9992 -0.0389 0.0389 0.9992 -10.0455 12.295)" class="st0" cx="311.25" cy="264.55" rx="4.55" ry="10.34"/>
	</g>
	<g>
		<path class="st1" d="M502.81,224.09c0.26-0.2,12.21-4.51,14.62-4.87s12.82,1.17,14.07,1.34s1.42,2.02,0.83,2.41
			c-0.51,0.34-10.63-0.25-13.31-0.3c-0.42-0.01-0.83,0.05-1.24,0.16l-16.92,4.84c0,0,16.87-5.76,16.92-6.03s-0.13-1.56-0.46-1.55
			C517,220.09,502.81,224.09,502.81,224.09z"/>
		<path class="st1" d="M519.15,238.38c0.26-0.18,11.88-4.73,27.23-5.5c15.35-0.77,20.6,0.37,20.6,0.37l0.09,16.93l-8.72,0.23
			l-0.92-14.21c0,0-11.35-0.08-24.32,2.05c-12.97,2.13-17.83,3.69-17.83,3.69s8.94-3.11,20.52-5.13
			c11.58-2.02,22.04-2.45,22.04-2.45s-11.62-0.51-24.16,1.26C521.15,237.39,519.15,238.38,519.15,238.38z"/>
		<path class="st1" d="M514.28,236.54l-0.4-10.84c0,0-10.87,3.31-10.94,3.54s0.24,10.39,0.24,10.39s4.92-1.2,8.59-0.96
			c3.67,0.24,5.69,0.43,5.69,0.43s-2.71-1.08-7.05-1.16c-4.34-0.08-6.13,0.32-6.13,0.32l-0.36-8.3l8.86-2.46L514.28,236.54z"/>
		<path class="st1" d="M516.27,225.29c0.22-0.08,1.41-0.99,5.97-1.22c4.56-0.22,9.5,0.22,9.5,0.22l2.71,10.73l-1.72,0.33l-2.1-9.99
			c0,0-5.84-0.51-9.06-0.38S516.27,225.29,516.27,225.29z"/>
		
			<ellipse transform="matrix(0.9999 -0.0159 0.0159 0.9999 -4.1016 8.6964)" class="st1" cx="544.71" cy="262.23" rx="13.89" ry="15.74"/>
		
			<ellipse transform="matrix(0.9999 -0.0159 0.0159 0.9999 -4.0997 8.6641)" class="st0" cx="542.68" cy="262.09" rx="7.86" ry="10.27"/>
		<path class="st1" d="M525.29,251.65c-0.01-0.42-0.69-8.59-0.69-8.59s30.73-3.82,30.31-3.95s-28.2,5.86-28.2,5.86L525.29,251.65z"
			/>
		<path class="st1" d="M520.24,256.86c0.69-0.29,11.91-1.02,11.5-0.88c-0.41,0.15-11.89,3.73-11.89,3.73L520.24,256.86z"/>
		<polygon class="st0" points="559.87,235.78 560.85,247.76 561.77,235.54 		"/>
		<polygon class="st0" points="562.46,235.48 563.19,247.62 563.95,235.4 		"/>
		<path class="st0" d="M564.74,235.39c-0.05,0.16,0.3,12.1,0.3,12.1l1.08-12.28L564.74,235.39z"/>
		<path class="st1" d="M503.84,244.68c0,0,8.38-0.13,9.57,10.35c1.01,8.95-1.91,17.53-6.49,18.62s-8.07-1.47-8.07-1.47
			s1.32,3.18,6.58,4.19s11.63-2.37,14.55-11.1c2.84-8.47,1.33-14.93-2.12-18.63C512.38,240.75,503.84,244.68,503.84,244.68z"/>
		<path class="st1" d="M568.78,250.63c0,0,1.1,1.28-1.92,1.62c-3.03,0.34-8.51,0.5-8.51,0.5s9.02-0.44,8.86,0.87
			c-0.16,1.3-9.69,1.46-9.47,1.45c0.22,0,14.17,1.44,14.17,1.44l-1.88-4.74L568.78,250.63z"/>
		<path class="st1" d="M565.52,249.39c0,0,2.17,0.25,3.82,3.91c1.65,3.66,2.67,8.84-0.13,14.37c-2.8,5.53-6.83,6.17-9.21,6.43
			c-2.38,0.25-4.66-2.31-4.66-2.31s0.78,3.81,6.07,4.67c5.28,0.85,11.87-2.79,13.22-13.06c1.35-10.27-6.44-14.27-7.74-14.61
			c-1.31-0.34-1.44,0.31-1.44,0.31"/>
	</g>
	<g>
		<path class="st0" d="M131.58,378.93h-6.29c-0.61,0-1.15,0.29-1.63,0.88l-21.98,26.63c-0.64,0.77-0.54,1.16,0.28,1.16h7.56
			c0.4,0,0.7-0.05,0.9-0.16c0.2-0.11,0.44-0.34,0.74-0.72l3.14-3.94h9.84c0.26,0,0.4,0.12,0.4,0.36v3.58
			c-0.03,0.58,0.28,0.88,0.92,0.88h6.29c0.82,0,1.23-0.38,1.23-1.16l-0.48-26.63C132.49,379.22,132.19,378.93,131.58,378.93z
			 M124.17,396.37h-4.78l5.14-6.45l0.04,6.09C124.57,396.25,124.44,396.37,124.17,396.37z"/>
		<path class="st0" d="M211.21,378.93h-6.25c-0.66,0-1.15,0.36-1.47,1.08l-7.96,19.67c-0.08,0.27-0.27,0.4-0.56,0.4h-9.56
			c-0.24,0-0.32-0.13-0.24-0.4l7.92-19.67c0.32-0.72,0.12-1.08-0.6-1.08h-6.29c-0.66,0-1.16,0.36-1.47,1.08l-8.44,20.86
			c-0.77,1.88-0.76,3.48,0.02,4.78c0.78,1.3,2.12,1.95,4,1.95h13.62c2.52,0,4.48-0.5,5.87-1.49c1.39-1,2.59-2.74,3.6-5.24
			l8.44-20.86C212.16,379.29,211.95,378.93,211.21,378.93z"/>
		<path class="st0" d="M279.33,378.93h-25c-0.66,0-1.15,0.36-1.47,1.08l-2.19,5.41c-0.27,0.69-0.05,1.03,0.64,1.03h8.24l-8.05,20.07
			c-0.32,0.72-0.11,1.07,0.64,1.07h6.25c0.66,0,1.15-0.36,1.47-1.07l8.05-20.07h8.4c0.72,0,1.21-0.34,1.47-1.03l2.19-5.41
			C280.28,379.29,280.07,378.93,279.33,378.93z"/>
		<path class="st0" d="M341.48,378.93h-13.5c-2.5,0-4.44,0.5-5.83,1.49s-2.59,2.74-3.6,5.24l-6.17,15.21
			c-0.77,1.88-0.76,3.48,0.02,4.78c0.78,1.3,2.12,1.95,4,1.95h3.93h0.89h8.68c2.49,0,4.45-0.5,5.85-1.49c1.41-1,2.61-2.74,3.62-5.24
			l6.17-15.21c0.77-1.88,0.76-3.48-0.02-4.78C344.74,379.58,343.39,378.93,341.48,378.93z M336.66,386.85l-5.18,12.82
			c-0.08,0.27-0.27,0.4-0.56,0.4h-6.69h-0.89h-1.86c-0.24,0-0.32-0.13-0.24-0.4l5.18-12.82c0.08-0.26,0.27-0.4,0.56-0.4h9.44
			C336.66,386.46,336.74,386.59,336.66,386.85z"/>
		<path class="st0" d="M411.95,378.97h-18.39c-0.69,0-1.17,0.34-1.43,1.04l-10.71,26.56c-0.32,0.69-0.12,1.04,0.6,1.04h6.25
			c0.74,0,1.25-0.34,1.51-1.04l2.77-6.93h11.09c2.49,0,4.44-0.5,5.83-1.49c1.39-1,2.59-2.74,3.6-5.24l2.91-7.21
			c0.77-1.88,0.76-3.48-0.02-4.78C415.17,379.62,413.83,378.97,411.95,378.97z M407.13,386.82l-2.11,5.26
			c-0.11,0.24-0.29,0.36-0.56,0.36h-9.05l2.24-5.61c0.11-0.24,0.29-0.36,0.56-0.36h8.68C407.16,386.46,407.24,386.58,407.13,386.82z
			"/>
		<path class="st0" d="M484.17,378.93h-21.94c-0.66,0-1.16,0.36-1.47,1.08l-10.71,26.52c-0.32,0.72-0.12,1.07,0.6,1.07h21.94
			c0.66,0,1.15-0.36,1.47-1.07l2.19-5.41c0.27-0.69,0.05-1.04-0.64-1.04h-14.29c-0.24,0-0.32-0.13-0.24-0.4l1.3-3.18h12.96
			c0.66,0,1.16-0.36,1.47-1.08l1.71-4.3c0.32-0.72,0.12-1.07-0.6-1.07H465l1.3-3.19c0.08-0.26,0.27-0.4,0.56-0.4h14.29
			c0.69,0,1.17-0.34,1.43-1.03l2.19-5.41C485.09,379.29,484.89,378.93,484.17,378.93z"/>
		<path class="st0" d="M551.49,378.93h-15.97c-2.5,0-4.44,0.5-5.83,1.49s-2.59,2.74-3.6,5.24l-6.17,15.21
			c-0.77,1.88-0.76,3.48,0.02,4.78c0.78,1.3,2.12,1.95,4,1.95h7.72c-0.16,1.43-0.6,2.56-1.31,3.38c-0.72,0.82-1.65,1.23-2.79,1.23
			c-0.27,0-0.48-0.01-0.64-0.04c-0.05,0-0.09-0.01-0.12-0.02c-0.03-0.01-0.07-0.02-0.12-0.02c-0.27,0-0.53,0.2-0.8,0.6l-0.92,1.51
			c-0.32,0.45-0.25,0.72,0.2,0.8c0.56,0.08,1.07,0.13,1.55,0.16c0.48,0.03,0.94,0.04,1.39,0.04c2.81,0,4.65-0.68,5.51-2.03
			c0.86-1.35,1.4-3.23,1.61-5.61h4.66c0.66,0,1.16-0.36,1.47-1.07l2.19-5.41c0.26-0.69,0.05-1.04-0.64-1.04h-13.38
			c-0.24,0-0.32-0.13-0.24-0.4l5.18-12.78c0.13-0.29,0.32-0.44,0.56-0.44h13.42c0.69,0,1.17-0.34,1.43-1.03l2.19-5.41
			C552.36,379.29,552.16,378.93,551.49,378.93z"/>
		<path class="st0" d="M610.74,378.93h-6.29c-0.61,0-1.15,0.29-1.63,0.88l-21.98,26.63c-0.64,0.77-0.54,1.16,0.28,1.16h7.56
			c0.4,0,0.7-0.05,0.9-0.16c0.2-0.11,0.44-0.34,0.74-0.72l3.14-3.94h9.84c0.26,0,0.4,0.12,0.4,0.36v3.58
			c-0.03,0.58,0.28,0.88,0.92,0.88h6.29c0.82,0,1.23-0.38,1.23-1.16l-0.48-26.63C611.65,379.22,611.35,378.93,610.74,378.93z
			 M603.33,396.37h-4.78l5.14-6.45l0.04,6.09C603.73,396.25,603.6,396.37,603.33,396.37z"/>
		<path class="st0" d="M686.86,380.82c-0.74-1.26-2.03-1.89-3.86-1.89h-12.7c-2.36,0-4.24,0.5-5.63,1.49
			c-1.39,1-2.57,2.67-3.52,5.04l-1.83,4.46c-0.72,1.83-0.7,3.38,0.04,4.64c0.74,1.26,2.03,1.89,3.86,1.89h11.31
			c0.37,0,0.48,0.17,0.32,0.52l-1.27,3.18c-0.13,0.35-0.39,0.52-0.76,0.52h-9.52c-0.34,0-0.44-0.17-0.28-0.52l0.36-0.96
			c0.21-0.45,0.08-0.68-0.4-0.68h-6.45c-0.43,0-0.74,0.23-0.96,0.68l-0.76,1.87c-0.74,1.83-0.74,3.38,0.02,4.64
			c0.76,1.26,2.05,1.89,3.88,1.89h13.1c2.34,0,4.2-0.5,5.59-1.49c1.39-1,2.58-2.67,3.56-5.04l1.83-4.46
			c0.72-1.83,0.7-3.38-0.04-4.64c-0.74-1.26-2.03-1.89-3.86-1.89h-11.31c-0.37,0-0.48-0.17-0.32-0.52l1.27-3.18
			c0.13-0.34,0.39-0.52,0.76-0.52h9.12c0.34,0,0.44,0.17,0.28,0.52l-0.36,0.96c-0.21,0.45-0.08,0.68,0.4,0.68h6.45
			c0.42,0,0.74-0.23,0.96-0.68l0.76-1.87C687.62,383.63,687.6,382.08,686.86,380.82z"/>
	</g>
	<path class="st1" d="M101.55,359.18l59.31-78.71c2.29-3.12,5.8-4.94,9.51-4.94h561.22c4.52,0,7.61,4.87,5.94,9.35l-31.5,76.28
		c-1.46,3.92-5.02,6.5-8.97,6.5H105.41C101.31,367.67,99.02,362.63,101.55,359.18z"/>
	<g>
		<path class="st3" d="M466.47,325.42l3.73-9.25c0.62-1.47,0.2-2.21-1.27-2.21h-24.18c-1.47,0-2.52,0.74-3.14,2.21l-3.65,9.16
			c-0.68,1.47-0.25,2.21,1.27,2.21h8.51l-3.16,7.89c-0.17,0.57-0.57,0.85-1.19,0.85h-19.01c-0.51,0-0.68-0.28-0.51-0.85l11.12-27.32
			c0.17-0.56,0.56-0.85,1.19-0.85h25.45c1.47,0,2.49-0.73,3.05-2.21l4.67-11.54c0.56-1.53,0.14-2.29-1.27-2.29H438.3
			c-5.32,0-9.46,1.06-12.43,3.18c-2.97,2.12-5.53,5.84-7.68,11.16l-13.15,32.41c-1.64,4.02-1.63,7.41,0.04,10.18
			c1.67,2.77,4.51,4.16,8.53,4.16h27.66c5.32,0,9.46-1.06,12.43-3.18c2.97-2.12,5.53-5.84,7.68-11.16l4.83-12.04
			C466.3,325.78,466.39,325.6,466.47,325.42z"/>
		<path class="st3" d="M524.67,314.9l-27.52-0.04l2.75-6.75c0.17-0.56,0.56-0.85,1.19-0.85h30.46c1.47,0,2.49-0.73,3.05-2.21
			l4.67-11.54c0.68-1.53,0.25-2.29-1.27-2.29h-46.75c-1.41,0-2.46,0.76-3.14,2.29l-22.82,56.51c-0.68,1.53-0.25,2.29,1.27,2.29
			h46.75c1.41,0,2.46-0.76,3.14-2.29l4.67-11.54c0.56-1.47,0.11-2.21-1.36-2.21h-30.46c-0.51,0-0.68-0.28-0.51-0.85l2.78-6.83
			l27.6,0.04c1.41,0,2.46-0.76,3.14-2.29l3.65-9.16C526.62,315.66,526.2,314.9,524.67,314.9z"/>
		<path class="st3" d="M644.56,291.22h-13.41c-1.3,0-2.46,0.62-3.48,1.87l-46.84,56.76c-0.24,0.29-0.41,0.55-0.56,0.79
			c-0.04-0.22-0.1-0.44-0.21-0.7l-6.53-17.14c4.58,0,8.05-0.68,10.39-2.04c2.35-1.36,4.26-3.76,5.73-7.21l7.55-17.99
			c1.64-3.96,1.63-7.34-0.04-10.14c-1.67-2.8-4.51-4.2-8.53-4.2h-39.88c-1.41,0-2.46,0.76-3.14,2.29l-22.82,56.51
			c-0.68,1.53-0.25,2.29,1.27,2.29h13.41c1.41,0,2.46-0.76,3.14-2.29l7.06-17.44l6.86,0.21l6.7,18.07c0.34,0.96,1.22,1.44,2.63,1.44
			h14.08c1.01,0,1.68-0.19,2.05-0.55c0.13,0.37,0.6,0.55,1.43,0.55h16.12c0.85,0,1.48-0.11,1.91-0.34c0.42-0.23,0.95-0.73,1.57-1.53
			l6.69-8.4h20.97c0.56,0,0.85,0.25,0.85,0.76v7.64c-0.06,1.24,0.59,1.87,1.95,1.87h13.41c1.75,0,2.63-0.82,2.63-2.46l-1.02-56.76
			C646.52,291.85,645.86,291.22,644.56,291.22z M553.91,317.2l3.68-9.09c0.17-0.56,0.56-0.85,1.19-0.85h19.01
			c0.51,0,0.68,0.28,0.51,0.85l-3.39,8.48c-0.23,0.57-0.62,0.85-1.19,0.85L553.91,317.2z M628.78,328.39H618.6l10.94-13.75
			l0.08,12.98C629.63,328.13,629.35,328.39,628.78,328.39z"/>
		<path class="st3" d="M699.29,336.28H674.6c-0.51,0-0.68-0.28-0.51-0.85l16.97-41.92c0.68-1.53,0.25-2.29-1.27-2.29h-13.41
			c-1.41,0-2.46,0.76-3.14,2.29l-22.82,56.51c-0.68,1.53-0.25,2.29,1.27,2.29h41.15c1.47,0,2.55-0.76,3.22-2.29l4.67-11.54
			C701.3,337.01,700.82,336.28,699.29,336.28z"/>
	</g>
	<g>
		<path class="st0" d="M196.12,291.22h-13.41c-1.3,0-2.46,0.62-3.48,1.87l-46.84,56.76c-1.36,1.64-1.16,2.46,0.59,2.46h16.12
			c0.85,0,1.48-0.11,1.91-0.34c0.42-0.23,0.95-0.73,1.57-1.53l6.69-8.4H166h14.25c0.56,0,0.85,0.25,0.85,0.76v7.64
			c-0.06,1.24,0.59,1.87,1.95,1.87h13.41c1.75,0,2.63-0.82,2.63-2.46l-1.02-56.76C198.07,291.85,197.42,291.22,196.12,291.22z
			 M180.33,328.39h-3.99c0,0-3.72-0.04-6.18-0.02l10.93-13.73l0.08,12.98C181.18,328.13,180.9,328.39,180.33,328.39z"/>
		<path class="st0" d="M280.96,291.22h-13.32c-1.41,0-2.46,0.76-3.14,2.29l-16.97,41.92c-0.17,0.57-0.57,0.85-1.19,0.85h-20.36
			c-0.51,0-0.68-0.28-0.51-0.85l16.89-41.92c0.68-1.53,0.25-2.29-1.27-2.29h-13.41c-1.41,0-2.46,0.76-3.14,2.29l-17.99,44.46
			c-1.64,4.02-1.63,7.41,0.04,10.18c1.67,2.77,4.51,4.16,8.53,4.16h29.02c5.37,0,9.55-1.06,12.52-3.18
			c2.97-2.12,5.53-5.84,7.68-11.16l17.99-44.46C283,291.99,282.55,291.22,280.96,291.22z"/>
		<path class="st0" d="M334.84,307.26c1.53,0,2.57-0.73,3.14-2.21l4.67-11.54c0.68-1.53,0.23-2.29-1.36-2.29h-53.29
			c-1.41,0-2.46,0.76-3.14,2.29l-4.67,11.54c-0.57,1.47-0.11,2.21,1.36,2.21h17.71l-17.29,42.76c-0.68,1.53-0.23,2.29,1.36,2.29
			h13.32c1.41,0,2.46-0.76,3.14-2.29l17.29-42.76H334.84z"/>
		<path class="st0" d="M397.5,295.38c-1.67-2.77-4.54-4.16-8.61-4.16h-28.76c-5.32,0-9.46,1.06-12.43,3.18
			c-2.97,2.12-5.53,5.84-7.68,11.16l-13.15,32.41c-1.64,4.02-1.63,7.41,0.04,10.18c1.67,2.77,4.51,4.16,8.53,4.16h18.67h1.61h8.48
			c5.32,0,9.47-1.06,12.47-3.18c3-2.12,5.57-5.84,7.72-11.16l13.15-32.41C399.18,301.55,399.17,298.15,397.5,295.38z M378.62,308.11
			l-11.03,27.32c-0.17,0.57-0.57,0.85-1.19,0.85h-4.24h-1.61H346.3c-0.51,0-0.68-0.28-0.51-0.85l11.03-27.32
			c0.17-0.56,0.56-0.85,1.19-0.85h20.11C378.62,307.26,378.79,307.54,378.62,308.11z"/>
	</g>
</g>
</svg>
