<?xml version="1.0" encoding="UTF-8" standalone="no"?>
<svg
   xmlns:dc="http://purl.org/dc/elements/1.1/"
   xmlns:cc="http://creativecommons.org/ns#"
   xmlns:rdf="http://www.w3.org/1999/02/22-rdf-syntax-ns#"
   xmlns:svg="http://www.w3.org/2000/svg"
   xmlns="http://www.w3.org/2000/svg"
   xmlns:sodipodi="http://sodipodi.sourceforge.net/DTD/sodipodi-0.dtd"
   xmlns:inkscape="http://www.inkscape.org/namespaces/inkscape"
   version="1.1"
   id="Capa_1"
   x="0px"
   y="0px"
   width="28.667px"
   height="28.667px"
   viewBox="0 0 28.667 28.667"
   style="enable-background:new 0 0 28.667 28.667;"
   xml:space="preserve"
   sodipodi:docname="homem.svg"
   inkscape:version="1.0.2-2 (e86c870879, 2021-01-15)"><metadata
   id="metadata1268"><rdf:RDF><cc:Work
       rdf:about=""><dc:format>image/svg+xml</dc:format><dc:type
         rdf:resource="http://purl.org/dc/dcmitype/StillImage" /></cc:Work></rdf:RDF></metadata><defs
   id="defs1266" /><sodipodi:namedview
   pagecolor="#ffffff"
   bordercolor="#666666"
   borderopacity="1"
   objecttolerance="10"
   gridtolerance="10"
   guidetolerance="10"
   inkscape:pageopacity="0"
   inkscape:pageshadow="2"
   inkscape:window-width="1366"
   inkscape:window-height="705"
   id="namedview1264"
   showgrid="false"
   inkscape:zoom="18.767224"
   inkscape:cx="4.0762556"
   inkscape:cy="12.202124"
   inkscape:window-x="-8"
   inkscape:window-y="-8"
   inkscape:window-maximized="1"
   inkscape:current-layer="Capa_1" />
<g
   id="g1231"
   style="fill:#f95777;fill-opacity:1">
	<path
   d="m 18.486,18.104 c 1.034,-1.013 1.775,-2.531 2.115,-4.648 0.455,0.083 1.053,-0.387 1.261,-1.179 0.214,-0.813 0.462,-2.178 -0.003,-2.302 C 21.722,9.938 21.58,9.966 21.437,10.038 V 7.778 C 21.513,5.321 21.177,2.949 18.498,1.922 18.009,0.915 17.977,0 17.977,0 16.771,1.086 12.192,1.526 12.192,1.526 L 12.244,1.54 C 6.438,2.137 7.276,4.224 7.276,7.777 v 2.26 C 7.134,9.965 6.992,9.936 6.854,9.974 c -0.463,0.124 -0.323,1.437 -0.109,2.251 0.209,0.798 0.921,1.321 1.377,1.229 0.347,2.223 1.041,3.703 1.995,4.67 -4.443,1.625 -7.604,5.728 -7.604,10.543 H 26.154 C 26.152,23.827 22.962,19.71 18.486,18.104 Z"
   id="path1229"
   style="fill:#f95777;fill-opacity:1" />
</g>
<g
   id="g1233">
</g>
<g
   id="g1235">
</g>
<g
   id="g1237">
</g>
<g
   id="g1239">
</g>
<g
   id="g1241">
</g>
<g
   id="g1243">
</g>
<g
   id="g1245">
</g>
<g
   id="g1247">
</g>
<g
   id="g1249">
</g>
<g
   id="g1251">
</g>
<g
   id="g1253">
</g>
<g
   id="g1255">
</g>
<g
   id="g1257">
</g>
<g
   id="g1259">
</g>
<g
   id="g1261">
</g>
</svg>
