<?xml version="1.0" encoding="UTF-8" standalone="no"?>
<svg
   xmlns:dc="http://purl.org/dc/elements/1.1/"
   xmlns:cc="http://creativecommons.org/ns#"
   xmlns:rdf="http://www.w3.org/1999/02/22-rdf-syntax-ns#"
   xmlns:svg="http://www.w3.org/2000/svg"
   xmlns="http://www.w3.org/2000/svg"
   xmlns:sodipodi="http://sodipodi.sourceforge.net/DTD/sodipodi-0.dtd"
   xmlns:inkscape="http://www.inkscape.org/namespaces/inkscape"
   version="1.1"
   id="Capa_1"
   x="0px"
   y="0px"
   viewBox="0 0 465.978 465.978"
   style="enable-background:new 0 0 465.978 465.978;"
   xml:space="preserve"
   sodipodi:docname="pin-da-faculdade.svg"
   inkscape:version="1.0.2-2 (e86c870879, 2021-01-15)"><metadata
   id="metadata2538"><rdf:RDF><cc:Work
       rdf:about=""><dc:format>image/svg+xml</dc:format><dc:type
         rdf:resource="http://purl.org/dc/dcmitype/StillImage" /></cc:Work></rdf:RDF></metadata><defs
   id="defs2536" /><sodipodi:namedview
   pagecolor="#ffffff"
   bordercolor="#666666"
   borderopacity="1"
   objecttolerance="10"
   gridtolerance="10"
   guidetolerance="10"
   inkscape:pageopacity="0"
   inkscape:pageshadow="2"
   inkscape:window-width="1366"
   inkscape:window-height="705"
   id="namedview2534"
   showgrid="false"
   inkscape:zoom="0.81639788"
   inkscape:cx="114.74647"
   inkscape:cy="187.18973"
   inkscape:window-x="-8"
   inkscape:window-y="-8"
   inkscape:window-maximized="1"
   inkscape:current-layer="g2499"
   inkscape:object-paths="true" />
<g
   id="g2501"
   style="fill:#f95777;fill-opacity:1">
	<g
   id="g2499"
   style="fill:#f95777;fill-opacity:1">
		<g
   id="g2497"
   style="fill:#f95777;fill-opacity:1"
   transform="translate(3.8848373,2.6599442)">
			<path
   style="fill:#f95777;fill-opacity:1"
   d="m 321.145,231.201 c 0,6.468 -37.469,11.753 -83.701,11.753 -46.213,0 -83.652,-5.286 -83.652,-11.753 0,-6.487 37.439,-11.744 83.652,-11.744 46.252,0 83.701,5.257 83.701,11.744 z m -83.691,-76.295 c -73.618,0 -91.693,27.171 -91.693,27.171 v 6.302 c 6.204,-6.653 28.509,-24.093 91.693,-24.093 63.184,0 85.528,17.44 91.732,24.083 v -6.282 c 0,-0.01 -18.104,-27.181 -91.732,-27.181 z M 413.62,0 V 361.291 H 299.983 L 232.989,465.978 166.024,361.291 H 52.358 V 0 Z m -44.073,232.872 c -10.571,4.103 -14.714,0 -14.714,0 l -3.4,46.223 c 9.926,-15.408 18.114,-9.604 18.114,-9.604 z m -4.993,-17.381 v -29.897 l 28.812,-15.916 -155.912,-83.261 -155.883,83.261 62.158,36.111 v 22.921 l 0.576,-0.244 c -0.684,0.909 -1.104,1.788 -1.104,2.736 0,10.444 42.168,18.944 94.263,18.944 52.095,0 94.321,-8.51 94.321,-18.944 0,-0.948 -0.459,-1.827 -1.085,-2.736 l 0.547,0.244 v -22.98 l 27.102,-16.678 v 26.438 c -2.96,1.202 -5.041,4.152 -5.041,7.552 0,4.494 3.644,8.148 8.148,8.148 4.524,0 8.148,-3.644 8.148,-8.148 0.001,-3.399 -2.06,-6.35 -5.05,-7.551 z"
   id="path2495" />
		</g>
	</g>
</g>
<g
   id="g2503">
</g>
<g
   id="g2505">
</g>
<g
   id="g2507">
</g>
<g
   id="g2509">
</g>
<g
   id="g2511">
</g>
<g
   id="g2513">
</g>
<g
   id="g2515">
</g>
<g
   id="g2517">
</g>
<g
   id="g2519">
</g>
<g
   id="g2521">
</g>
<g
   id="g2523">
</g>
<g
   id="g2525">
</g>
<g
   id="g2527">
</g>
<g
   id="g2529">
</g>
<g
   id="g2531">
</g>
</svg>
